{
	"patcher" : 	{
		"fileversion" : 1,
		"appversion" : 		{
			"major" : 8,
			"minor" : 1,
			"revision" : 11,
			"architecture" : "x64",
			"modernui" : 1
		}
,
		"classnamespace" : "dsp.gen",
		"rect" : [ 271.0, 87.0, 1100.0, 806.0 ],
		"bglocked" : 0,
		"openinpresentation" : 0,
		"default_fontsize" : 12.0,
		"default_fontface" : 0,
		"default_fontname" : "Arial",
		"gridonopen" : 1,
		"gridsize" : [ 15.0, 15.0 ],
		"gridsnaponopen" : 1,
		"objectsnaponopen" : 1,
		"statusbarvisible" : 2,
		"toolbarvisible" : 1,
		"lefttoolbarpinned" : 0,
		"toptoolbarpinned" : 0,
		"righttoolbarpinned" : 0,
		"bottomtoolbarpinned" : 0,
		"toolbars_unpinned_last_save" : 0,
		"tallnewobj" : 0,
		"boxanimatetime" : 200,
		"enablehscroll" : 1,
		"enablevscroll" : 1,
		"devicewidth" : 0.0,
		"description" : "",
		"digest" : "",
		"tags" : "",
		"style" : "",
		"subpatcher_template" : "",
		"assistshowspatchername" : 0,
		"boxes" : [ 			{
				"box" : 				{
					"fontname" : "Arial",
					"fontsize" : 12.0,
					"id" : "obj-3",
					"linecount" : 4,
					"maxclass" : "comment",
					"numinlets" : 1,
					"numoutlets" : 0,
					"patching_rect" : [ 433.5, 141.0, 150.0, 60.0 ],
					"text" : "Low shelving filter maps between v_c and v_b. Omitted here as it makes little difference."
				}

			}
, 			{
				"box" : 				{
					"fontname" : "Arial",
					"fontsize" : 12.0,
					"id" : "obj-20",
					"maxclass" : "comment",
					"numinlets" : 1,
					"numoutlets" : 0,
					"patching_rect" : [ 191.0, 349.0, 33.0, 20.0 ],
					"text" : "V_b"
				}

			}
, 			{
				"box" : 				{
					"fontname" : "Arial",
					"fontsize" : 12.0,
					"id" : "obj-17",
					"maxclass" : "comment",
					"numinlets" : 1,
					"numoutlets" : 0,
					"patching_rect" : [ 878.0, 349.0, 88.0, 20.0 ],
					"text" : "Scale"
				}

			}
, 			{
				"box" : 				{
					"fontname" : "Arial",
					"fontsize" : 12.0,
					"id" : "obj-15",
					"maxclass" : "comment",
					"numinlets" : 1,
					"numoutlets" : 0,
					"patching_rect" : [ 553.5, 349.0, 51.0, 20.0 ],
					"text" : "Offset"
				}

			}
, 			{
				"box" : 				{
					"fontname" : "Arial",
					"fontsize" : 12.0,
					"id" : "obj-13",
					"maxclass" : "newobj",
					"numinlets" : 0,
					"numoutlets" : 1,
					"outlettype" : [ "" ],
					"patching_rect" : [ 878.0, 369.0, 28.0, 22.0 ],
					"text" : "in 3"
				}

			}
, 			{
				"box" : 				{
					"fontname" : "Arial",
					"fontsize" : 12.0,
					"id" : "obj-12",
					"maxclass" : "newobj",
					"numinlets" : 0,
					"numoutlets" : 1,
					"outlettype" : [ "" ],
					"patching_rect" : [ 553.5, 369.0, 30.0, 22.0 ],
					"text" : "in 2"
				}

			}
, 			{
				"box" : 				{
					"code" : "//Nonlinear control circuit maps V_b to R_f (Vactrol Resistance)\r\n\r\n\r\n// Inputs\r\nVb= clip(in1,-10.0,50.0);\r\noffset = 0.9999*in2 + 0.0001;\r\nscale = clip(in3,0.0,1.0);\r\nscale = 0.48; // This value is tuned for appropriate input range.\r\n\r\n// Constants\r\nA = 3.4645912;\r\nB = 1136.2129956;\r\nIfmin = 10.1e-6;\r\nIfmax = 40e-3;\r\nR2max = 10e3;\r\nR6max = 20e3;\r\nR7 = 33e3;\r\nR3 = 150e3;\r\nR5 = 100e3;\r\nR4 = 470e3;\r\nR8 = 4.7e3;\r\nR9 = 470;\r\nVB = 3.9;\r\nVF = 0.7;\r\nVT = 26e-3;\r\nn = 3.9696;\r\nkl = 6.3862;\r\nG = 2e5;\r\nVs = 15;\r\nk0 = 1.468e2;\r\nk1 = 4.9202e-1;\r\nk2 = 4.1667e-4;\r\nk3 = 7.3915e-9;\r\ngamma = 0.0001;\r\n\r\nR6 = scale * R6max;\r\nR1 = (1-offset)*R2max;\r\nR2 = offset*R2max;\r\n\r\nalpha = 1 + (R6+R7) * (1/R3 + 1/R5);\r\nbeta = ((1/alpha) - 1)/(R6 + R7) - 1/R8;\r\n\r\nbound1 = 600* alpha *n*VT/(G*(R6+R7-1/(alpha*beta))); \r\n\r\nIa = Vb/R5 + Vs/(R3*(1+R1/R2));\r\n\r\nV3 = 0.;\r\nIf =0.;\r\nflag = 0.;\r\nif (Ia <= -bound1)\r\n{\r\n\tV3 = -Ia/(alpha*beta);\r\n}\r\nelse if ( Ia < bound1)\r\n{\r\n\tx = G*Ia*(R6+R7-1/(alpha*beta))/(alpha*n*VT);\r\n\tw = k0 + k1*x + k2*pow(x,2) + k3*pow(x,3);\r\n\tV3 = -(alpha/G)*n*VT*w - Ia/(alpha*beta);\r\n}\r\n else {\n   V3 = kl*alpha/G*n*VT-Ia*(R6+R7);\n}\r\n\r\nIfbound1 = alpha*(Ifmin- beta*V3);\r\nIfbound2 = VB/(R6+R7);\r\nIfbound3 = (gamma*G*VB + alpha*R9*(VB*beta+Ifmax))/(gamma*G*(R6+R7) + R9);\r\n\r\nif (Ia <= Ifbound1) {\r\n\tIf = Ifmin;\r\n\t}\r\nelse if (Ia <= Ifbound2) {\r\n\tIf = beta * V3 + Ia/alpha;\r\n\t}\r\nelse if (Ia <= Ifbound3) {\r\n\tIf = gamma * G *(Ia*(R6+R7) - VB)/(alpha*R9) - beta*VB + Ia/alpha;\r\n}\r\nelse {\r\n\tIf = Ifmax;\r\n\t}\r\n\r\nRf = B + A / pow(If,1.4);\r\nout1 = Rf;\r\n",
					"fontface" : 0,
					"fontname" : "Menlo",
					"fontsize" : 12.0,
					"id" : "obj-11",
					"maxclass" : "codebox",
					"numinlets" : 3,
					"numoutlets" : 1,
					"outlettype" : [ "" ],
					"patching_rect" : [ 229.0, 400.0, 918.0, 622.0 ]
				}

			}
, 			{
				"box" : 				{
					"code" : "out1 = in1;",
					"fontface" : 0,
					"fontname" : "Menlo",
					"fontsize" : 12.0,
					"id" : "obj-10",
					"maxclass" : "codebox",
					"numinlets" : 1,
					"numoutlets" : 1,
					"outlettype" : [ "" ],
					"patching_rect" : [ 229.0, 112.0, 200.0, 200.0 ]
				}

			}
, 			{
				"box" : 				{
					"fontname" : "Arial",
					"fontsize" : 12.0,
					"id" : "obj-9",
					"maxclass" : "comment",
					"numinlets" : 1,
					"numoutlets" : 0,
					"patching_rect" : [ 286.0, 1079.0, 150.0, 20.0 ],
					"text" : "R_F"
				}

			}
, 			{
				"box" : 				{
					"fontname" : "Arial",
					"fontsize" : 12.0,
					"id" : "obj-7",
					"maxclass" : "comment",
					"numinlets" : 1,
					"numoutlets" : 0,
					"patching_rect" : [ 291.0, 31.0, 150.0, 20.0 ],
					"text" : "V_c"
				}

			}
, 			{
				"box" : 				{
					"fontname" : "Arial",
					"fontsize" : 12.0,
					"id" : "obj-1",
					"maxclass" : "newobj",
					"numinlets" : 0,
					"numoutlets" : 1,
					"outlettype" : [ "" ],
					"patching_rect" : [ 228.0, 31.0, 30.0, 22.0 ],
					"text" : "in 1"
				}

			}
, 			{
				"box" : 				{
					"fontname" : "Arial",
					"fontsize" : 12.0,
					"id" : "obj-4",
					"maxclass" : "newobj",
					"numinlets" : 1,
					"numoutlets" : 0,
					"patching_rect" : [ 229.0, 1079.0, 37.0, 22.0 ],
					"text" : "out 1"
				}

			}
 ],
		"lines" : [ 			{
				"patchline" : 				{
					"destination" : [ "obj-10", 0 ],
					"source" : [ "obj-1", 0 ]
				}

			}
, 			{
				"patchline" : 				{
					"destination" : [ "obj-11", 0 ],
					"source" : [ "obj-10", 0 ]
				}

			}
, 			{
				"patchline" : 				{
					"destination" : [ "obj-4", 0 ],
					"source" : [ "obj-11", 0 ]
				}

			}
, 			{
				"patchline" : 				{
					"destination" : [ "obj-11", 1 ],
					"source" : [ "obj-12", 0 ]
				}

			}
, 			{
				"patchline" : 				{
					"destination" : [ "obj-11", 2 ],
					"source" : [ "obj-13", 0 ]
				}

			}
 ],
		"autosave" : 0,
		"bgcolor" : [ 0.9, 0.9, 0.9, 1.0 ],
		"editing_bgcolor" : [ 0.9, 0.9, 0.9, 1.0 ]
	}

}
